# Blender v2.79 (sub 0) OBJ File: ''
# www.blender.org
mtllib cell.mtl
o Cube
v -7.475924 -1.000000 -7.957496
v -7.475924 -1.000000 7.715178
v -7.820623 -1.000000 7.715178
v -7.820622 -1.000000 -7.957497
v -7.475923 5.332788 -7.957496
v -7.475924 5.332788 7.715179
v -7.820623 5.332788 7.715178
v -7.820623 5.332788 -7.957497
vn 0.0000 -1.0000 0.0000
vn 0.0000 1.0000 -0.0000
vn 1.0000 0.0000 0.0000
vn -0.0000 -0.0000 1.0000
vn -1.0000 -0.0000 -0.0000
vn 0.0000 0.0000 -1.0000
usemtl Material
s off
f 1//1 2//1 3//1 4//1
f 5//2 8//2 7//2 6//2
f 1//3 5//3 6//3 2//3
f 2//4 6//4 7//4 3//4
f 3//5 7//5 8//5 4//5
f 5//6 1//6 4//6 8//6
o Cube.001
v -7.766346 -1.000000 7.368968
v 7.906329 -1.000000 7.368967
v 7.906329 -1.000000 7.713667
v -7.766346 -1.000000 7.713667
v -7.766345 5.332788 7.368968
v 7.906330 5.332788 7.368968
v 7.906329 5.332788 7.713667
v -7.766346 5.332788 7.713667
vn 0.0000 -1.0000 -0.0000
vn 0.0000 1.0000 0.0000
vn -0.0000 0.0000 -1.0000
vn 1.0000 -0.0000 0.0000
vn 0.0000 0.0000 1.0000
vn -1.0000 0.0000 -0.0000
usemtl Material.001
s off
f 9//7 10//7 11//7 12//7
f 13//8 16//8 15//8 14//8
f 9//9 13//9 14//9 10//9
f 10//10 14//10 15//10 11//10
f 11//11 15//11 16//11 12//11
f 13//12 9//12 12//12 16//12
o Cube.002
v 7.959095 -1.000000 -7.957496
v 7.959095 -1.000000 7.715178
v 7.614396 -1.000000 7.715178
v 7.614397 -1.000000 -7.957497
v 7.959096 5.332788 -7.957496
v 7.959095 5.332788 7.715179
v 7.614396 5.332788 7.715178
v 7.614396 5.332788 -7.957497
v 7.959095 -1.000000 -0.121159
v 7.959096 2.166394 -7.957496
v 7.959095 2.166394 7.715179
v 7.959095 5.332788 -0.121158
v 7.959095 2.166394 -0.121159
v 7.959095 -1.000000 3.797010
v 7.959096 3.749591 -7.957496
v 7.959095 3.749591 7.715179
v 7.959095 5.332788 3.797011
v 7.959095 -1.000000 -4.039328
v 7.959095 0.583197 -7.957496
v 7.959095 0.583197 7.715178
v 7.959095 5.332788 -4.039327
v 7.959095 2.166394 3.797010
v 7.959095 2.166394 -4.039327
v 7.959095 0.583197 -0.121159
v 7.959095 3.749591 -0.121158
v 7.959095 3.749591 -4.039327
v 7.959095 0.583197 -4.039327
v 7.959095 0.583197 3.797010
v 7.959095 3.749591 3.797011
v 7.959095 -1.000000 5.756094
v 7.959096 4.541190 -7.957496
v 7.959095 4.541190 7.715179
v 7.959095 5.332788 5.756095
v 7.959095 -1.000000 -2.080243
v 7.959095 1.374796 -7.957496
v 7.959095 1.374796 7.715178
v 7.959095 5.332788 -2.080242
v 7.959095 2.166394 5.756094
v 7.959095 2.166394 -2.080243
v 7.959095 -0.208401 -0.121159
v 7.959095 2.957993 -0.121158
v 7.959095 -1.000000 1.837925
v 7.959096 2.957993 -7.957496
v 7.959095 2.957993 7.715179
v 7.959095 5.332788 1.837926
v 7.959095 -1.000000 -5.998412
v 7.959095 -0.208401 -7.957496
v 7.959095 -0.208401 7.715178
v 7.959096 5.332788 -5.998411
v 7.959095 2.166394 1.837926
v 7.959095 2.166394 -5.998411
v 7.959095 1.374796 -0.121159
v 7.959095 4.541190 -0.121158
v 7.959095 3.749591 -2.080243
v 7.959096 3.749591 -5.998411
v 7.959095 2.957993 -4.039327
v 7.959095 4.541190 -4.039327
v 7.959095 0.583197 -2.080243
v 7.959095 0.583197 -5.998411
v 7.959095 -0.208401 -4.039328
v 7.959095 1.374796 -4.039327
v 7.959095 0.583197 5.756094
v 7.959095 0.583197 1.837925
v 7.959095 -0.208401 3.797010
v 7.959095 1.374796 3.797010
v 7.959095 3.749591 5.756095
v 7.959095 3.749591 1.837926
v 7.959095 2.957993 3.797010
v 7.959095 4.541190 3.797011
v 7.959095 4.541190 1.837926
v 7.959095 2.957993 1.837926
v 7.959095 2.957993 5.756095
v 7.959095 1.374796 1.837926
v 7.959095 -0.208401 1.837925
v 7.959095 -0.208401 5.756094
v 7.959095 1.374796 -5.998411
v 7.959095 -0.208401 -5.998412
v 7.959095 -0.208401 -2.080243
v 7.959096 4.541190 -5.998411
v 7.959096 2.957993 -5.998411
v 7.959095 2.957993 -2.080243
v 7.959095 4.541190 -2.080242
v 7.959095 1.374796 -2.080243
v 7.959095 1.374796 5.756094
v 7.959095 4.541190 5.756095
v 7.614396 -1.000000 -0.121159
v 7.614396 2.166394 7.715178
v 7.614396 2.166394 -7.957497
v 7.614396 5.332788 -0.121159
v 7.614396 2.166394 -0.121159
v 7.614396 -1.000000 -4.039328
v 7.614396 3.749591 7.715178
v 7.614396 3.749591 -7.957497
v 7.614396 5.332788 -4.039328
v 7.614396 0.583197 7.715178
v 7.614396 -1.000000 3.797010
v 7.614397 0.583197 -7.957497
v 7.614396 5.332788 3.797010
v 7.614396 2.166394 -4.039328
v 7.614396 2.166394 3.797010
v 7.614396 0.583197 -0.121159
v 7.614396 3.749591 -0.121159
v 7.614396 0.583197 -4.039328
v 7.614396 0.583197 3.797010
v 7.614396 3.749591 3.797010
v 7.614396 3.749591 -4.039328
v 7.614397 -1.000000 -5.998412
v 7.614396 4.541190 7.715178
v 7.614396 4.541190 -7.957497
v 7.614396 5.332788 -5.998412
v 7.614396 1.374796 7.715178
v 7.614396 -1.000000 1.837925
v 7.614396 1.374796 -7.957497
v 7.614396 5.332788 1.837925
v 7.614396 2.166394 -5.998412
v 7.614396 2.166394 1.837925
v 7.614396 -0.208401 -0.121159
v 7.614396 2.957993 -0.121159
v 7.614396 -1.000000 -2.080243
v 7.614396 2.957993 7.715178
v 7.614396 2.957993 -7.957497
v 7.614396 5.332788 -2.080243
v 7.614396 -0.208401 7.715178
v 7.614396 -1.000000 5.756094
v 7.614397 -0.208401 -7.957497
v 7.614396 5.332788 5.756094
v 7.614396 2.166394 -2.080243
v 7.614396 2.166394 5.756094
v 7.614396 1.374796 -0.121159
v 7.614396 4.541190 -0.121159
v 7.614396 0.583197 -5.998412
v 7.614396 0.583197 -2.080243
v 7.614396 -0.208401 -4.039328
v 7.614396 1.374796 -4.039328
v 7.614396 0.583197 1.837925
v 7.614396 0.583197 5.756094
v 7.614396 -0.208401 3.797010
v 7.614396 1.374796 3.797010
v 7.614396 3.749591 1.837925
v 7.614396 3.749591 5.756094
v 7.614396 2.957993 3.797010
v 7.614396 4.541190 3.797010
v 7.614396 3.749591 -5.998412
v 7.614396 3.749591 -2.080243
v 7.614396 2.957993 -4.039328
v 7.614396 4.541190 -4.039328
v 7.614396 4.541190 -2.080243
v 7.614396 2.957993 -2.080243
v 7.614396 2.957993 -5.998412
v 7.614396 4.541190 5.756094
v 7.614396 2.957993 5.756094
v 7.614396 2.957993 1.837925
v 7.614396 1.374796 5.756094
v 7.614396 -0.208401 5.756094
v 7.614396 -0.208401 1.837925
v 7.614396 1.374796 -2.080243
v 7.614396 -0.208401 -2.080243
v 7.614397 -0.208401 -5.998412
v 7.614396 1.374796 -5.998412
v 7.614396 1.374796 1.837925
v 7.614396 4.541190 1.837925
v 7.614396 4.541190 -5.998412
vn 0.0000 -1.0000 0.0000
vn 0.0000 1.0000 -0.0000
vn 1.0000 0.0000 0.0000
vn -0.0000 -0.0000 1.0000
vn -1.0000 0.0000 0.0000
vn 0.0000 0.0000 -1.0000
usemtl Material.002
s off
f 17//13 62//13 34//13 50//13 25//13 58//13 30//13 46//13 18//13 19//13 140//13 112//13 128//13 102//13 135//13 107//13 123//13 20//13
f 21//14 24//14 126//14 110//14 138//14 105//14 130//14 114//14 142//14 23//14 22//14 49//14 33//14 61//14 28//14 53//14 37//14 65//14
f 101//15 49//15 22//15 48//15
f 18//16 64//16 36//16 52//16 27//16 60//16 32//16 48//16 22//16 23//16 124//16 108//16 136//16 103//16 127//16 111//16 139//16 19//16
f 178//17 126//17 24//17 125//17
f 21//18 47//18 31//18 59//18 26//18 51//18 35//18 63//18 17//18 20//18 141//18 113//18 129//18 104//18 137//18 109//18 125//18 24//18
f 100//15 54//15 27//15 52//15
f 99//15 55//15 29//15 68//15
f 98//15 53//15 28//15 69//15
f 97//15 70//15 41//15 57//15
f 96//15 71//15 42//15 72//15
f 95//15 65//15 37//15 73//15
f 94//15 74//15 40//15 56//15
f 93//15 75//15 43//15 76//15
f 92//15 67//15 39//15 77//15
f 91//15 78//15 36//15 64//15
f 90//15 79//15 44//15 80//15
f 89//15 66//15 38//15 81//15
f 88//15 82//15 32//15 60//15
f 87//15 83//15 45//15 84//15
f 86//15 61//15 33//15 85//15
f 83//15 86//15 85//15 45//15
f 41//15 69//15 86//15 83//15
f 69//15 28//15 61//15 86//15
f 66//15 87//15 84//15 38//15
f 29//15 57//15 87//15 66//15
f 57//15 41//15 83//15 87//15
f 54//15 88//15 60//15 27//15
f 38//15 84//15 88//15 54//15
f 84//15 45//15 82//15 88//15
f 79//15 89//15 81//15 44//15
f 40//15 68//15 89//15 79//15
f 68//15 29//15 66//15 89//15
f 58//15 90//15 80//15 30//15
f 25//15 56//15 90//15 58//15
f 56//15 40//15 79//15 90//15
f 46//15 91//15 64//15 18//15
f 30//15 80//15 91//15 46//15
f 80//15 44//15 78//15 91//15
f 75//15 92//15 77//15 43//15
f 35//15 51//15 92//15 75//15
f 51//15 26//15 67//15 92//15
f 62//15 93//15 76//15 34//15
f 17//15 63//15 93//15 62//15
f 63//15 35//15 75//15 93//15
f 50//15 94//15 56//15 25//15
f 177//17 130//17 105//17 146//17
f 176//17 132//17 106//17 145//17
f 71//15 95//15 73//15 42//15
f 31//15 47//15 95//15 71//15
f 47//15 21//15 65//15 95//15
f 67//15 96//15 72//15 39//15
f 26//15 59//15 96//15 67//15
f 59//15 31//15 71//15 96//15
f 55//15 97//15 57//15 29//15
f 39//15 72//15 97//15 55//15
f 72//15 42//15 70//15 97//15
f 70//15 98//15 69//15 41//15
f 42//15 73//15 98//15 70//15
f 73//15 37//15 53//15 98//15
f 74//15 99//15 68//15 40//15
f 175//17 131//17 104//17 129//17
f 39//13 55//13 143//13 115//13
f 78//15 100//15 52//15 36//15
f 44//15 81//15 100//15 78//15
f 81//15 38//15 54//15 100//15
f 82//15 101//15 48//15 32//15
f 45//15 85//15 101//15 82//15
f 85//15 33//15 49//15 101//15
f 174//17 147//17 113//17 141//17
f 77//16 39//16 115//16 150//16
f 171//17 151//17 117//17 133//17
f 170//17 152//17 120//17 153//17
f 169//17 144//17 116//17 154//17
f 168//17 155//17 118//17 134//17
f 167//17 156//17 121//17 157//17
f 166//17 142//17 114//17 158//17
f 165//17 159//17 109//17 137//17
f 164//17 160//17 122//17 161//17
f 163//17 138//17 110//17 162//17
f 160//17 163//17 162//17 122//17
f 118//17 146//17 163//17 160//17
f 146//17 105//17 138//17 163//17
f 143//17 164//17 161//17 115//17
f 106//17 134//17 164//17 143//17
f 134//17 118//17 160//17 164//17
f 131//17 165//17 137//17 104//17
f 115//17 161//17 165//17 131//17
f 161//17 122//17 159//17 165//17
f 156//17 166//17 158//17 121//17
f 108//17 124//17 166//17 156//17
f 124//17 23//17 142//17 166//17
f 144//17 167//17 157//17 116//17
f 103//17 136//17 167//17 144//17
f 136//17 108//17 156//17 167//17
f 132//17 168//17 134//17 106//17
f 116//17 157//17 168//17 132//17
f 157//17 121//17 155//17 168//17
f 152//17 169//17 154//17 120//17
f 111//17 127//17 169//17 152//17
f 127//17 103//17 144//17 169//17
f 140//17 170//17 153//17 112//17
f 19//17 139//17 170//17 140//17
f 139//17 111//17 152//17 170//17
f 128//17 171//17 133//17 102//17
f 112//17 153//17 171//17 128//17
f 153//17 120//17 151//17 171//17
f 117//17 145//17 172//17 148//17
f 145//17 106//17 143//17 172//17
f 102//17 133//17 173//17 135//17
f 133//17 117//17 148//17 173//17
f 123//17 174//17 141//17 20//17
f 107//17 149//17 174//17 123//17
f 149//17 119//17 147//17 174//17
f 147//17 175//17 129//17 113//17
f 119//17 150//17 175//17 147//17
f 150//17 115//17 131//17 175//17
f 151//17 176//17 145//17 117//17
f 120//17 154//17 176//17 151//17
f 154//17 116//17 132//17 176//17
f 155//17 177//17 146//17 118//17
f 121//17 158//17 177//17 155//17
f 158//17 114//17 130//17 177//17
f 159//17 178//17 125//17 109//17
f 122//17 162//17 178//17 159//17
f 162//17 110//17 126//17 178//17
f 50//18 135//18 173//18 148//18 172//18 99//18 74//18 94//18
f 99//18 172//18 143//18 55//18
f 34//16 76//16 43//16 77//16 150//16 119//16 149//16 107//16
o Cube.003
v -7.766346 -1.000000 -8.081717
v 7.906329 -1.000000 -8.081718
v 7.906329 -1.000000 -7.737019
v -7.766346 -1.000000 -7.737019
v -7.766345 5.332788 -8.081718
v 7.906330 5.332788 -8.081717
v 7.906329 5.332788 -7.737019
v -7.766346 5.332788 -7.737019
vn 0.0000 -1.0000 -0.0000
vn 0.0000 1.0000 0.0000
vn 0.0000 0.0000 -1.0000
vn 1.0000 -0.0000 0.0000
vn 0.0000 0.0000 1.0000
vn -1.0000 0.0000 -0.0000
usemtl Material.003
s off
f 179//19 180//19 181//19 182//19
f 183//20 186//20 185//20 184//20
f 179//21 183//21 184//21 180//21
f 180//22 184//22 185//22 181//22
f 181//23 185//23 186//23 182//23
f 183//24 179//24 182//24 186//24
o Cube.004
v -7.797507 -1.265455 -7.999465
v -7.797507 -1.265455 7.673210
v -7.797507 -0.920756 7.673210
v -7.797507 -0.920756 -7.999465
v 7.970834 -1.265456 -7.999464
v 7.970834 -1.265455 7.673211
v 7.970834 -0.920756 7.673210
v 7.970834 -0.920756 -7.999465
vn -1.0000 -0.0000 0.0000
vn 1.0000 0.0000 0.0000
vn -0.0000 -1.0000 0.0000
vn 0.0000 0.0000 1.0000
vn 0.0000 1.0000 -0.0000
vn 0.0000 -0.0000 -1.0000
usemtl Material.004
s off
f 187//25 188//25 189//25 190//25
f 191//26 194//26 193//26 192//26
f 187//27 191//27 192//27 188//27
f 188//28 192//28 193//28 189//28
f 189//29 193//29 194//29 190//29
f 191//30 187//30 190//30 194//30
