# Blender v2.79 (sub 0) OBJ File: ''
# www.blender.org
mtllib fire.mtl
o Cone
v 1.818733 1.003910 -0.805457
v 1.818733 1.803919 -0.173445
v 1.897091 1.072712 -0.542855
v 1.944062 1.118047 -0.308991
v 2.188442 1.063640 -0.564135
v 2.363179 0.967508 -0.659109
v 2.253545 1.045745 -0.434478
v 2.114509 1.067214 -0.243096
v 2.349421 1.038353 -0.200769
v 2.493628 0.966662 -0.093898
v 2.390849 1.010997 -0.024870
v 2.247214 1.061364 -0.034726
v 2.083832 1.101162 -0.066855
v 2.150613 1.092316 0.224434
v 1.848146 1.207601 0.144958
v 1.910480 1.080459 0.312336
v 1.912906 1.035119 0.421656
v 1.818732 1.039758 0.405395
v 1.724559 1.035119 0.421656
v 1.726985 1.080459 0.312336
v 1.789319 1.207601 0.144958
v 1.486852 1.092316 0.224433
v 1.553633 1.101162 -0.066856
v 1.390251 1.061364 -0.034725
v 1.246615 1.010996 -0.024870
v 1.143837 0.966662 -0.093898
v 1.288046 1.038353 -0.200769
v 1.522956 1.067214 -0.243097
v 1.383920 1.045745 -0.434479
v 1.274287 0.967508 -0.659109
v 1.449027 1.063643 -0.564126
v 1.693404 1.118047 -0.308991
v 1.740373 1.072709 -0.542862
v 1.818733 1.803919 -0.173445
v 1.897091 1.072712 -0.542855
vn 0.9017 0.2680 -0.3393
vn 0.9475 0.2191 -0.2328
vn -0.7216 0.0049 -0.6923
vn -0.3126 0.3165 -0.8956
vn 0.8705 0.4011 0.2852
vn 0.7937 0.2670 0.5466
vn 0.1949 0.1696 -0.9661
vn 0.6637 0.4805 -0.5732
vn 0.6160 0.5501 0.5639
vn -0.0038 0.1815 0.9834
vn -0.1726 0.0837 0.9814
vn 0.9260 0.3186 -0.2026
vn -0.0533 0.4683 0.8820
vn 0.8510 -0.2141 -0.4795
vn 0.9873 0.1532 0.0416
vn -0.1073 0.6003 0.7925
vn 0.1073 0.6003 0.7925
vn -0.9873 0.1531 0.0416
vn -0.8510 -0.2141 -0.4795
vn 0.0533 0.4683 0.8820
vn -0.9260 0.3186 -0.2026
vn 0.1726 0.0837 0.9814
vn 0.0038 0.1815 0.9834
vn -0.6160 0.5501 0.5639
vn -0.6637 0.4805 -0.5732
vn -0.1949 0.1696 -0.9661
vn -0.7937 0.2670 0.5466
vn -0.8705 0.4011 0.2852
vn 0.3127 0.3165 -0.8956
vn 0.7216 0.0049 -0.6923
vn -0.9475 0.2191 -0.2328
vn -0.9017 0.2680 -0.3393
vn 0.0000 -0.9990 0.0455
vn 0.0000 0.0000 1.0000
usemtl None
s off
f 1//1 2//1 3//1
f 3//2 2//2 4//2
f 4//3 2//3 5//3
f 5//4 2//4 6//4
f 6//5 2//5 7//5
f 7//6 2//6 8//6
f 8//7 2//7 9//7
f 9//8 2//8 10//8
f 10//9 2//9 11//9
f 11//10 2//10 12//10
f 12//11 2//11 13//11
f 13//12 2//12 14//12
f 14//13 2//13 15//13
f 15//14 2//14 16//14
f 16//15 2//15 17//15
f 17//16 2//16 18//16
f 18//17 2//17 19//17
f 19//18 2//18 20//18
f 20//19 2//19 21//19
f 21//20 2//20 22//20
f 22//21 2//21 23//21
f 23//22 2//22 24//22
f 24//23 2//23 25//23
f 25//24 2//24 26//24
f 26//25 2//25 27//25
f 27//26 2//26 28//26
f 28//27 2//27 29//27
f 29//28 2//28 30//28
f 30//29 2//29 31//29
f 31//30 2//30 32//30
f 32//31 2//31 33//31
f 33//32 2//32 1//32
f 1//33 3//33 4//33 5//33 6//33 7//33 8//33 9//33 10//33 11//33 12//33 13//33 14//33 15//33 16//33 17//33 18//33 19//33 20//33 21//33 22//33 23//33 24//33 25//33 26//33 27//33 28//33 29//33 30//33 31//33 32//33 33//33
f 2//34 3//34 35//34 34//34
